<mxfile host="app.diagrams.net" modified="2022-07-16T07:09:42.863Z" agent="5.0 (Windows NT 10.0; Win64; x64) AppleWebKit/537.36 (KHTML, like Gecko) Chrome/102.0.5005.124 Safari/537.36 Edg/102.0.1245.44" etag="aareMJKLsuLtQd1ZQuZ9" version="20.0.3" type="github">
  <diagram id="epMUracAmcP5iu6XdRiO" name="Page-1">
    <mxGraphModel dx="940" dy="678" grid="1" gridSize="10" guides="1" tooltips="1" connect="1" arrows="1" fold="1" page="1" pageScale="1" pageWidth="827" pageHeight="1169" math="0" shadow="0">
      <root>
        <mxCell id="0" />
        <mxCell id="1" parent="0" />
        <mxCell id="gC76u17pTULy5lHRLzzO-1" value="" style="rounded=0;whiteSpace=wrap;html=1;" vertex="1" parent="1">
          <mxGeometry x="200" y="120" width="80" height="30" as="geometry" />
        </mxCell>
        <mxCell id="gC76u17pTULy5lHRLzzO-2" value="" style="rounded=0;whiteSpace=wrap;html=1;" vertex="1" parent="1">
          <mxGeometry x="280" y="120" width="160" height="30" as="geometry" />
        </mxCell>
        <mxCell id="gC76u17pTULy5lHRLzzO-3" value="" style="rounded=0;whiteSpace=wrap;html=1;" vertex="1" parent="1">
          <mxGeometry x="440" y="120" width="320" height="30" as="geometry" />
        </mxCell>
        <mxCell id="gC76u17pTULy5lHRLzzO-4" value="" style="rounded=0;whiteSpace=wrap;html=1;" vertex="1" parent="1">
          <mxGeometry x="760" y="120" width="80" height="30" as="geometry" />
        </mxCell>
      </root>
    </mxGraphModel>
  </diagram>
</mxfile>
